Patient4_TMGait_0pt7_01_left_11_EMG.mot
version=1
nRows=30
nColumns=33
inDegrees=no
endheader
time	1LAddLong	2LGlutMax	3LGlutMed	4LIliopsoas	5LSemiMemb	6LBicFemLong	7LRecFem	8LVastMed	9LVastLat	10LGasMed	11LTibAnt	12lTibPost	13LPeroneusLong	14LSol	15LExtDigLong	16LFlexDigLong	17RAddLong	18RGlutMax	19RGlutMed	20RIliopsoas	21RSemiMemb	22RBicFemLong	23RRecFem	24RVastMed	25RVastLat	26RGasMed	27RTibAnt	28RTibPost	29RPeroneusLong	30RSol	31RExtDigLong	32RFlexDigLong
13.047	-0.006561	1.0306	0.30975	0.012207	-0.091248	-0.12375	-0.036316	0.009766	-0.49789	-0.071259	0.11475	-0.032959	-0.21027	0.035706	0.23086	-0.008087	0.10712	-0.78278	-0.24963	0.13397	0.044556	-0.12207	0.61081	-0.1944	-0.020905	-0.055695	0.093994	-0.34332	0.82779	-0.23911	-0.001984	-0.015564
13.048	-0.006866	0.92987	0.27054	-0.007935	-0.083313	-0.1474	-0.15991	0.027771	-0.41855	-0.021973	0.09079	-0.009308	-0.041351	-0.024872	0.20767	-0.009766	0.11993	-0.81406	-0.22446	0.15762	0.096436	-0.1178	0.76004	-0.17227	0.009766	-0.053711	0.053101	0.20432	0.37888	-0.52139	-0.004425	-0.01709
13.049	-0.008087	0.896	0.037689	-0.00412	-0.048828	-0.32883	-0.28366	0.020599	-0.18372	-0.011597	0.15366	0.004272	0.10376	-0.04425	0.17746	-0.013733	0.12451	-0.82108	-0.28381	0.1532	0.10666	-0.12344	0.9082	-0.086517	0.010986	-0.035858	0.085449	0.21286	0.25299	-0.41245	-0.007477	-0.016022
13.05	-0.010529	0.93765	-0.059052	0.005798	-0.036011	-0.098877	-0.28748	0.003204	0.11612	-0.004578	0.33066	0.009766	-0.054626	-0.058441	0.71274	0.006714	0.14847	-0.71915	-0.34912	0.099945	0.12756	-0.12085	0.76614	-0.074005	0.019073	-0.018158	-0.028229	0.036011	-0.56107	-0.14099	-0.004883	-0.017853
13.051	-0.003662	0.96542	-0.037689	0.005188	-0.022125	0.02121	-0.34988	0.003967	0.15686	0.002594	0.19608	0.019379	-0.097961	-0.054474	0.89371	0.007629	0.094299	-0.63385	-0.32059	-0.018158	0.14053	-0.15488	0.73166	-0.060272	0.027466	-0.006714	-0.14938	0.006561	-0.24704	0.37933	-0.00473	-0.00351
13.052	0.004883	0.99777	0.080414	0.006409	-0.041199	0.032806	-0.42831	-0.026855	0.14191	-0.025787	-0.25269	0.029144	-0.031738	0.01358	0.94101	0.036774	0.079041	-0.41077	-0.29022	-0.053253	0.13855	-0.15335	0.62225	-0.061035	0.016022	-0.014801	-0.14343	-0.005341	-0.20721	0.52994	-0.003357	-0.006104
13.053	-0.022888	0.94147	0.012054	0.014801	-0.082855	-0.21942	-0.40863	-0.0383	0.081177	-0.017242	-0.15778	0.030975	-0.1532	0.08194	1.0007	0.040283	0.075989	-0.22476	-0.34805	-0.11704	0.12268	-0.1532	0.36102	-0.094299	0.00885	-0.010223	-0.020752	-0.013428	-0.19836	0.38803	-0.003357	-0.001831
13.054	-0.028076	0.94376	-0.17807	0.017853	-0.10773	-0.47104	-0.28763	-0.029297	-0.024872	-0.052795	0.53299	0.048676	-0.18646	0.26672	0.47653	0.070038	0.07843	-0.10895	-0.40268	-0.024109	0.12817	-0.1857	0.30868	-0.075989	-0.015717	-0.015259	-0.057373	-0.014801	-0.26779	0.2829	-0.003662	-0.004578
13.055	-0.017242	0.92483	-0.21454	0.000458	-0.19882	-0.15625	-0.17563	-0.029297	-0.11597	-0.053558	0.79788	0.059357	-0.13947	0.2948	0.59097	0.072174	-0.004425	-0.004883	-0.49118	0.031586	0.11612	-0.23666	0.4834	-0.011139	-0.022125	-0.019379	-0.027313	-0.019073	-0.1474	0.1561	-0.005798	-0.018463
13.056	0.023499	0.94315	-0.11948	0.012665	-0.20721	0.11307	-0.23636	-0.009918	-0.091095	-0.13489	-0.2388	0.07431	0.21286	0.41809	-0.13046	0.066528	-0.062256	0.12009	-0.44266	-0.028381	0.072632	-0.24323	0.59616	0.055847	-0.031433	-0.015106	-0.014191	-0.024109	0.3537	0.13397	-0.00885	-0.016937
13.057	0.048065	0.97244	0.079498	0.024414	-0.093384	0.16846	-0.21423	-0.009613	-0.051117	-0.12741	-0.44037	0.078583	0.28854	0.34256	0.17929	0.056	-0.084534	0.1741	-0.48431	-0.092468	0.048981	-0.30411	0.7692	0.051575	-0.0354	-0.007935	-0.00946	-0.020447	0.34973	0.14114	-0.002899	-0.023346
13.058	0.051575	0.94254	0.12024	-0.012054	0.011292	0.14389	-0.20325	-0.009003	0.06012	0.012817	0.050201	0.088501	-0.096283	0.14236	-0.24643	0.041504	-0.048523	0.15045	-0.40985	-0.053711	0.02533	-0.34576	0.98023	-0.02121	-0.041199	-0.000153	-0.021515	-0.014648	0.2269	0.14008	-0.004272	-0.013123
13.059	0.06073	0.94376	0.25452	-0.011292	0.033569	0.14328	-0.28931	0.0177	0.087585	0.023193	0.071716	0.09491	-0.09552	0.023193	-0.91843	0.059662	-0.039673	0.29862	-0.20462	-0.038147	0.019226	-0.35294	1.0478	-0.019226	-0.023193	0.002899	-0.020599	-0.017853	-0.52765	0.096436	-0.004272	-0.014038
13.06	0.038757	0.95993	0.11337	-0.00351	0.023346	0.11902	-0.42602	0.027008	0.15625	-0.077209	-0.25604	0.11017	0.069885	0.11643	-0.67032	0.078735	-0.042877	0.3595	-0.44159	0.030823	0.028992	-0.31708	1.1494	0.12421	0.014343	-0.001221	-0.020752	-0.011444	-0.58411	0.041504	-0.00412	-0.019226
13.061	0.032349	1.0147	0.066223	0.001221	0.006104	0.027161	-0.42679	0.042725	0.2327	-0.028229	-0.42435	0.11612	0.067291	0.17044	-0.55496	0.054169	-0.12222	0.38559	-0.63522	0.061646	0.034943	-0.19867	1.1447	0.2652	0.029449	0.013733	-0.091095	-0.010223	-0.14175	0.02533	-0.001373	-0.005188
13.062	0.017395	1.0774	0.032196	0.006409	-0.04425	-0.081787	-0.33402	0.026245	0.088806	0.02182	-0.37689	0.11688	0.028992	0.065308	-0.96588	0.04837	-0.13367	0.45166	-0.56366	0.069122	0.074158	-0.22018	1.0126	0.27893	0.027466	0.018311	-0.066376	-0.009155	-0.3212	-0.056763	0.000153	-0.007782
13.063	0.003357	1.1661	-0.005035	0.007324	-0.010376	-0.12482	-0.33447	0.023041	-0.14023	0.006409	0.09491	0.12466	0.058594	0.000916	-0.99716	0.031586	-0.1001	0.56046	-0.61661	0.14969	0.103	-0.25497	1.0042	0.26611	0.024414	0.021667	0.036926	-0.011444	-0.20584	-0.22186	-0.007629	-0.006714
13.064	0.022736	1.2497	-0.004578	-0.002899	0.019836	-0.083923	-0.47104	0.021667	0.007629	0.021515	0.30838	0.11612	0.012512	-0.070496	-0.44052	0.034637	-0.046997	0.6218	-0.88409	0.20813	0.072327	-0.24155	0.93307	0.093231	0.001678	0.024109	0.12634	-0.012512	0.23697	-0.28168	-0.011292	0.002441
13.065	0.036926	1.2553	-0.082092	0.002441	0.004425	0.014191	-0.49744	0.009308	0.28534	0.037994	0.177	0.1152	-0.026245	-0.19852	-0.19775	0.040283	0.067291	0.68039	-0.86609	0.13825	0.039825	-0.27588	0.95932	0.0383	0.021362	0.019684	0.11353	-0.01297	0.457	-0.2887	-0.001984	-0.006256
13.066	0.050964	1.3809	-0.024261	-0.016327	-0.051422	-0.033112	-0.42404	0.036316	0.48416	0.00824	-0.19806	0.11673	-0.074158	-0.20752	-0.34347	0.05127	0.088959	0.73029	-0.54123	0.003357	0.006256	-0.30548	0.97702	0.00885	0.000458	0.000763	-0.0354	-0.009003	0.31204	-0.24139	-0.003662	-0.000153
13.067	0.04715	1.5077	-0.02655	-0.018768	-0.038605	-0.015869	-0.28427	0.034485	0.53268	0.028381	-0.18204	0.1062	-0.054932	-0.25971	-0.30868	0.042114	0.10452	0.79468	-0.61706	-0.0737	-0.007935	-0.31479	0.81604	0.002289	-0.000305	-0.006104	-0.062103	-0.013123	0.25909	-0.177	0.003204	-0.010223
13.068	0.0354	1.6	-0.046234	-0.000305	-0.04715	0.011444	-0.14694	0.005035	0.50766	0.009613	-0.079651	0.09613	-0.029297	-0.2652	0.03891	0.043793	0.053558	0.85739	-0.62271	-0.16602	-0.032654	-0.3717	0.57953	0.010834	-0.008698	-0.006256	-0.17456	-0.014343	0.34485	-0.16724	-0.008392	0.00061
13.069	0.023346	1.5421	0.007324	-0.000305	-0.04364	-0.052795	-0.12421	-0.04837	0.40085	0.005188	0.000763	0.078278	0.01297	-0.17548	0.44373	0.028076	-0.003662	0.88531	-0.69504	-0.10437	-0.05127	-0.40497	0.43823	0.036011	-0.014954	-0.007172	-0.21912	-0.01709	0.23972	-0.15793	-0.009308	0.001221
13.07	0.023193	1.4706	0.079346	-0.010681	-0.018311	-0.020142	-0.045624	-0.056458	0.16937	0.041809	-0.001678	0.069275	-0.026245	-0.24658	0.41061	0.046234	-0.022278	0.90118	-0.79285	0.009003	-0.048828	-0.37445	0.38574	0.014954	-0.014801	-0.005341	-0.168	-0.019379	0.14481	-0.11292	-0.00351	-0.002136
13.071	0.007782	1.2737	0.046234	0.014038	0.026245	-0.12238	0.006104	-0.037231	-0.20889	0.070953	-0.073242	0.052948	-0.12848	-0.10223	0.79132	0.048828	-0.089417	0.9584	-0.9346	0.14893	-0.033875	-0.25391	0.43915	0.043488	-0.005341	-0.000916	-0.084534	-0.013275	-0.17868	-0.063019	-0.002441	0
13.072	-0.00061	1.1397	-0.005798	0.000458	0.029297	-0.084686	0.009613	-0.023651	-0.35996	0.070496	-0.046844	0.030518	-0.19714	0.079498	0.66864	0.045624	-0.11185	0.93109	-0.94421	0.074005	-0.006256	-0.2623	0.45609	0.040436	0.023346	-0.002441	0.15381	-0.016937	-0.10254	0.003204	-0.005341	-0.000916
13.073	-0.004272	0.90622	-0.016327	0.003967	-0.054016	0.010986	0.054321	-0.012054	-0.14923	0.031128	-0.054932	0.029449	-0.2095	-0.027313	0.43182	0.035706	-0.056458	0.88394	-0.78262	0.055542	0.020752	-0.30685	0.49759	0.096741	0.036621	-0.001831	0.20203	-0.013123	-0.022125	0.029144	0.000305	-0.00473
13.074	-0.016327	0.69458	-0.023956	0.00946	-0.14145	0.019989	0.066681	0.002136	-0.012207	-0.014343	-0.015564	0.021362	-0.12314	-0.097351	0.27405	0.041504	0.060883	0.91065	-0.74204	0.10407	0.012512	-0.30655	0.54459	0.040894	0.00885	-0.004578	0.10254	-0.005341	0.034485	0.074615	-0.000458	-0.007324
13.075	-0.0177	0.53131	0.009766	0.011749	-0.22629	0.043488	-0.005188	0.013275	0.16113	0.034943	-0.11932	0.013123	-0.15976	-0.12497	0.3157	0.027618	0.20798	0.87219	-0.4921	0.09613	-0.027771	-0.32577	0.4538	-0.081482	0.001831	-0.007172	-0.10895	-0.010529	0.011292	0.08606	-0.000305	-0.00946
13.076	-0.018005	0.3656	0.079346	-0.004578	-0.1944	0.10193	-0.09613	0.023041	0.31845	0.05188	0.006561	-0.003967	-0.20477	-0.057068	0.49377	0.016174	0.28702	0.77454	-0.67764	0.14786	-0.057068	-0.38788	0.44601	-0.078278	0.001831	-0.012817	-0.20035	-0.008087	-0.091553	0.14984	-0.003357	-0.016022
